{"title":"Masters Of Sex S01E03 WEB-DL 480p x264 AAC [GWC].mp4","uid":9012526,"size":159355538,"categoryP":"video","categoryS":"tv_shows","magnet":"?xt=urn:btih:193291a36c942c74ac88168dea0a13891ad5222a&amp;dn=Masters+Of+Sex+S01E03+WEB-DL+480p+x264+AAC+%5BGWC%5D.mp4&amp;tr=udp%3A%2F%2Ftracker.openbittorrent.com%3A80&amp;tr=udp%3A%2F%2Fopen.demonii.com%3A1337&amp;tr=udp%3A%2F%2Ftracker.coppersurfer.tk%3A6969&amp;tr=udp%3A%2F%2Fexodus.desync.com%3A6969","seeders":2,"leechers":0,"uploader":"canc232","files":1,"time":1381131853,"description":"Masters Of Sex S01E03 WEB-DL 480p x264 AAC [GWC].mp4\n\n\nSCREENS :\n &lt;a href=&quot;\nhttp://s20.postimg.org/yjxw3ljp9/Masters_Of_Sex_S01_E03_WEB_DL_480p_x264_AAC_GWC.jpg&quot; rel=&quot;nofollow&quot; target=&quot;_NEW&quot;&gt;\nhttp://s20.postimg.org/yjxw3ljp9/Masters_Of_Sex_S01_E03_WEB_DL_480p_x264_AAC_GWC.jpg&lt;/a&gt;\n &lt;a href=&quot;\nhttp://s20.postimg.org/3ogpcgc8t/Masters_Of_Sex_S01_E03_WEB_DL_480p_x264_AAC_GWC.jpg&quot; rel=&quot;nofollow&quot; target=&quot;_NEW&quot;&gt;\nhttp://s20.postimg.org/3ogpcgc8t/Masters_Of_Sex_S01_E03_WEB_DL_480p_x264_AAC_GWC.jpg&lt;/a&gt;\n &lt;a href=&quot;\nhttp://s20.postimg.org/3n6rj1af1/Masters_Of_Sex_S01_E03_WEB_DL_480p_x264_AAC_GWC.jpg&quot; rel=&quot;nofollow&quot; target=&quot;_NEW&quot;&gt;\nhttp://s20.postimg.org/3n6rj1af1/Masters_Of_Sex_S01_E03_WEB_DL_480p_x264_AAC_GWC.jpg&lt;/a&gt;\n\n\n\nMEDIA INFO :\n\nGeneral \nFormat : MPEG-4 \nFormat profile : Base Media \nCodec ID : isom \nFile size : 152 MiB \nDuration : 52mn 29s \nOverall bit rate mode : Variable \nOverall bit rate : 405 Kbps \n\nVideo \nID : 1 \nFormat : AVC \nFormat profile : &lt;a class=&quot;__cf_email__&quot; href=&quot;/cdn-cgi/l/email-protection&quot; data-cfemail=&quot;3d75545a557d710e130d&quot;&gt;[email&amp;#160;protected]&lt;/a&gt;&lt;script cf-hash='f9e31' type=&quot;text/javascript&quot;&gt;\n/* &lt;![CDATA[ */!function(){try{var t=&quot;currentScript&quot;in document?document.currentScript:function(){for(var t=document.getElementsByTagName(&quot;script&quot;),e=t.length;e--;)if(t[e].getAttribute(&quot;cf-hash&quot;))return t[e]}();if(t&amp;&amp;t.previousSibling){var e,r,n,i,c=t.previousSibling,a=c.getAttribute(&quot;data-cfemail&quot;);if(a){for(e=&quot;&quot;,r=parseInt(a.substr(0,2),16),n=2;a.length-n;n+=2)i=parseInt(a.substr(n,2),16)^r,e+=String.fromCharCode(i);e=document.createTextNode(e),c.parentNode.replaceChild(e,c)}}}catch(u){}}();/* ]]&gt; */&lt;/script&gt; \nFormat settings, CABAC : Yes \nFormat settings, ReFrames : 4 frames \nDuration : 52mn 29s \nBit rate : 338 Kbps \nMaximum bit rate : 1 003 Kbps \nWidth : 720 pixels \nHeight : 404 pixels \nDisplay aspect ratio : 16:9 \nFrame rate : 23.976 fps \nStream size : 127 MiB (83%) \nWriting library : x264 core\nLanguage : English \n\nAudio \nID : 2 \nFormat : AAC \nFormat profile : LC \nDuration : 52mn 29s \nBit rate mode : Variable \nChannel(s) : 2 channels \nSampling rate : 44.1 KHz \nStream size : 22.2 MiB (15%) \nLanguage : English","torrent":{"xt":"urn:btih:193291a36c942c74ac88168dea0a13891ad5222a","amp;dn":"Masters+Of+Sex+S01E03+WEB-DL+480p+x264+AAC+%5BGWC%5D.mp4","amp;tr":["udp%3A%2F%2Ftracker.openbittorrent.com%3A80","udp%3A%2F%2Fopen.demonii.com%3A1337","udp%3A%2F%2Ftracker.coppersurfer.tk%3A6969","udp%3A%2F%2Fexodus.desync.com%3A6969"],"infoHash":"193291a36c942c74ac88168dea0a13891ad5222a","infoHashBuffer":{"type":"Buffer","data":[25,50,145,163,108,148,44,116,172,136,22,141,234,10,19,137,26,213,34,42]},"announce":[],"urlList":[]}}